<svg width="32" height="32" viewBox="0 0 32 32" fill="none" xmlns="http://www.w3.org/2000/svg">
<rect width="32" height="32" rx="8" fill="#00D2DF" fill-opacity="0.15"/>
<path d="M12 24C10.1753 24.0009 8.58119 22.7668 8.125 21H6V19H8.126C8.64564 16.9874 10.6201 15.7082 12.6693 16.0566C14.7184 16.4049 16.1594 18.2646 15.9849 20.3358C15.8103 22.407 14.0786 23.9995 12 24ZM12 18C10.9074 18.0011 10.0179 18.8788 10.0022 19.9713C9.98658 21.0638 10.8506 21.9667 11.9427 21.9991C13.0348 22.0315 13.9508 21.1815 14 20.09V20.49V20C14 18.8954 13.1046 18 12 18ZM26 21H17V19H26V21ZM17 16C15.1756 16.0005 13.5821 14.7664 13.126 13H6V11H13.126C13.6456 8.98744 15.6201 7.70825 17.6693 8.05656C19.7184 8.40487 21.1594 10.2646 20.9849 12.3358C20.8103 14.407 19.0786 15.9995 17 16ZM17 10C15.9074 10.0011 15.0179 10.8788 15.0022 11.9713C14.9866 13.0638 15.8506 13.9667 16.9427 13.9991C18.0348 14.0315 18.9508 13.1815 19 12.09V12.49V12C19 10.8954 18.1046 10 17 10ZM26 13H22V11H26V13Z" fill="#00D2DF"/>
</svg>
