<svg width="40" height="40" viewBox="0 0 40 40" fill="none" xmlns="http://www.w3.org/2000/svg">
<path d="M35.35 9.13334L34.4 6.68334L32.7333 8.71667C32.7333 8.71667 29.0167 13.25 24.1833 13.95C23.4833 14.05 22.7667 14.1667 22 14.3333C21.9643 12.3011 21.516 10.2973 20.6823 8.44364C19.8486 6.58995 18.6468 4.92505 17.15 3.55001L15.3167 1.66667L14.6833 4.18334C13.9911 6.41114 12.593 8.3533 10.7 9.71667C7.87754 11.2395 5.6388 13.654 4.33333 16.5833C3.82676 17.8008 3.56597 19.1064 3.56597 20.425C3.56597 21.7436 3.82676 23.0492 4.33333 24.2667C5.03179 25.9448 6.35138 27.2882 8.01667 28.0167L8.21667 28.1C8.18302 28.966 8.25013 29.8329 8.41667 30.6833C8.01667 30.6833 7.61667 30.6833 7.23333 30.6833C5.82347 30.7116 4.41778 30.5204 3.06667 30.1167L2.68333 30L1.63333 32.85L2.05 32.9833C3.73278 33.5067 5.48792 33.7598 7.25 33.7333C8.01667 33.7333 8.8 33.7333 9.58333 33.6C9.93747 34.2042 10.3627 34.7637 10.85 35.2667C12.6086 36.897 14.9186 37.802 17.3167 37.8H17.7333C21.5425 37.7078 25.2199 36.3866 28.2167 34.0333L28.55 33.7833C31.6667 31.3333 41.05 23.9833 35.35 9.13334ZM8.8 25.0167C8.0344 24.5575 7.44692 23.8525 7.13333 23.0167C6.7943 22.16 6.62857 21.2445 6.64573 20.3233C6.6629 19.4021 6.86262 18.4935 7.23333 17.65C8.28765 15.3578 10.0685 13.4774 12.3 12.3C14.1177 11.0891 15.5792 9.41473 16.5333 7.45001C18.2711 9.63538 19.1114 12.4006 18.8833 15.1833C16.4668 15.964 14.2607 17.2866 12.4333 19.05C10.7487 20.7088 9.50048 22.7586 8.8 25.0167ZM28.15 23.35L28.4333 23.0333L26.2167 20.9667L25.9333 21.2833C22.1514 25.71 17.1017 28.869 11.4667 30.3333C11.2703 29.4471 11.2308 28.5332 11.35 27.6333C11.6876 25.1871 12.8312 22.9232 14.6 21.2C17.3826 18.7338 20.8933 17.2418 24.6 16.95C27.8438 16.3278 30.8438 14.796 33.25 12.5333C33.8145 14.386 34.0955 16.3133 34.0833 18.25C34.0781 18.8916 34.028 19.5321 33.9333 20.1667C33.4964 23.1849 32.1606 26.0017 30.1 28.25C29.0883 29.3803 27.9723 30.4127 26.7667 31.3333L26.35 31.5833C22.0167 35.0167 15.65 35.7 13.0167 33.0333C18.8989 31.2996 24.1544 27.9021 28.15 23.25V23.35Z" fill="black" fill-opacity="0.6"/>
<path d="M29.6833 21.5833C30.15 21.0167 30.6333 20.4333 31.1 19.8167L31.35 19.4833L28.95 17.6333L28.7 17.9667C28.25 18.55 27.8 19.1 27.35 19.6333L27.0833 19.95L29.4167 21.9L29.6833 21.5833Z" fill="black" fill-opacity="0.6"/>
</svg>
