<svg width="40" height="40" viewBox="0 0 40 40" fill="none" xmlns="http://www.w3.org/2000/svg">
<g clip-path="url(#clip0_4_546)">
<path d="M20 36.6667C21.8333 36.6667 23.3333 35.1667 23.3333 33.3333H16.6667C16.6667 35.1667 18.1667 36.6667 20 36.6667ZM20 10.8333C24.15 10.8333 26.6667 14.2 26.6667 18.3333V18.5L30 21.8333V18.3333C30 13.2167 27.2833 8.93334 22.5 7.8V6.66667C22.5 5.28334 21.3833 4.16667 20 4.16667C18.6167 4.16667 17.5 5.28334 17.5 6.66667V7.8C17.1 7.9 16.7167 8.05 16.35 8.18334L19.0833 10.9167C19.3833 10.8833 19.6833 10.8333 20 10.8333ZM9.01667 5.58334L6.66667 7.93334L11.35 12.6167C10.4833 14.2833 10 16.2333 10 18.3333V26.6667L6.66667 30V31.6667H30.4L33.3 34.5667L35.65 32.2167L9.01667 5.58334ZM26.6667 28.3333H13.3333V18.3333C13.3333 17.2 13.5333 16.1333 13.9 15.1667L26.6667 27.9333V28.3333Z" fill="black" fill-opacity="0.6"/>
</g>
<defs>
<clipPath id="clip0_4_546">
<rect width="40" height="40" fill="white"/>
</clipPath>
</defs>
</svg>
