<svg width="68" height="125" viewBox="0 0 68 125" fill="none" xmlns="http://www.w3.org/2000/svg">
<g opacity="0.2">
<mask id="path-1-inside-1_2_802" fill="white">
<path d="M0 0C14.6495 1.74694e-07 28.9074 4.73095 40.651 13.4886C52.3946 22.2462 60.9961 34.5622 65.1748 48.6031C69.3536 62.6439 68.8862 77.6589 63.8423 91.4128C58.7984 105.167 49.4477 116.924 37.1821 124.934L0 68V0Z"/>
</mask>
<path d="M0 0C14.6495 1.74694e-07 28.9074 4.73095 40.651 13.4886C52.3946 22.2462 60.9961 34.5622 65.1748 48.6031C69.3536 62.6439 68.8862 77.6589 63.8423 91.4128C58.7984 105.167 49.4477 116.924 37.1821 124.934L0 68V0Z" fill="#00D2DF" stroke="#00D2DF" stroke-width="2" mask="url(#path-1-inside-1_2_802)"/>
</g>
</svg>
