<svg width="24" height="24" viewBox="0 0 24 24" fill="none" xmlns="http://www.w3.org/2000/svg">
<path d="M21.1474 13.3771L17.304 0.502075C17.215 0.204163 16.9411 0 16.6302 0H7.45278C7.14187 0 6.86794 0.204163 6.77895 0.502075L2.93557 13.3771C2.87222 13.5899 2.91287 13.8203 3.04562 13.9984C3.17837 14.1764 3.38729 14.2815 3.6094 14.2815H10.3319V20.5809H7.5696C7.18124 20.5809 6.86648 20.8958 6.86648 21.284V23.2969C6.86648 23.6852 7.18124 24 7.5696 24H16.5134C16.9016 24 17.2165 23.6852 17.2165 23.2969V21.284C17.2165 20.8958 16.9016 20.5809 16.5134 20.5809H13.7511V14.2813H15.8137V17.826C15.5003 17.8969 15.2659 18.1767 15.2659 18.5114C15.2659 18.8998 15.5808 19.2145 15.969 19.2145H17.0647C17.4531 19.2145 17.7678 18.8998 17.7678 18.5114C17.7678 18.1767 17.5335 17.8969 17.22 17.826V14.2813H20.4736C20.6955 14.2813 20.9046 14.1764 21.0374 13.9984C21.1699 13.8203 21.2108 13.5899 21.1474 13.3771ZM4.55312 12.8751L7.97665 1.40625H16.1063L19.5299 12.8751H4.55312ZM15.8103 22.5938H8.27273V21.9871H15.8103V22.5938ZM11.7382 20.5809V14.2813H12.3448V20.5809H11.7382Z" fill="white"/>
</svg>
