<svg width="40" height="40" viewBox="0 0 40 40" fill="none" xmlns="http://www.w3.org/2000/svg">
<g clip-path="url(#clip0_5_52)">
<path d="M36.6667 18.3333H29.7167L35.1167 12.9333L32.7667 10.5667L25 18.3333H21.6667V15L29.4333 7.23333L27.0667 4.88333L21.6667 10.2833V3.33333H18.3333V10.2833L12.9333 4.88333L10.5667 7.23333L18.3333 15V18.3333H15L7.23334 10.5667L4.88334 12.9333L10.2833 18.3333H3.33334V21.6667H10.2833L4.88334 27.0667L7.23334 29.4333L15 21.6667H18.3333V25L10.5667 32.7667L12.9333 35.1167L18.3333 29.7167V36.6667H21.6667V29.7167L27.0667 35.1167L29.4333 32.7667L21.6667 25V21.6667H25L32.7667 29.4333L35.1167 27.0667L29.7167 21.6667H36.6667V18.3333Z" fill="#00D2DF"/>
</g>
<defs>
<clipPath id="clip0_5_52">
<rect width="40" height="40" fill="white"/>
</clipPath>
</defs>
</svg>
